<?xml version="1.0" encoding="UTF-8" standalone="no"?>
<!-- Created with Inkscape (http://www.inkscape.org/) -->

<svg
   width="138.04401mm"
   height="138.04401mm"
   viewBox="0 0 138.044 138.04401"
   version="1.1"
   id="svg1"
   sodipodi:docname="CC-logo.svg"
   xml:space="preserve"
   inkscape:version="1.4.2 (ebf0e940d0, 2025-05-08)"
   xmlns:inkscape="http://www.inkscape.org/namespaces/inkscape"
   xmlns:sodipodi="http://sodipodi.sourceforge.net/DTD/sodipodi-0.dtd"
   xmlns="http://www.w3.org/2000/svg"
   xmlns:svg="http://www.w3.org/2000/svg"><sodipodi:namedview
     id="namedview1"
     pagecolor="#505050"
     bordercolor="#eeeeee"
     borderopacity="1"
     inkscape:showpageshadow="0"
     inkscape:pageopacity="0"
     inkscape:pagecheckerboard="0"
     inkscape:deskcolor="#505050"
     inkscape:document-units="mm"
     inkscape:zoom="0.53480902"
     inkscape:cx="58.89953"
     inkscape:cy="186.04772"
     inkscape:window-width="1920"
     inkscape:window-height="1052"
     inkscape:window-x="0"
     inkscape:window-y="0"
     inkscape:window-maximized="1"
     inkscape:current-layer="layer1" /><defs
     id="defs1" /><g
     inkscape:label="Layer 1"
     inkscape:groupmode="layer"
     id="layer1"
     transform="translate(-36.141526,-82.711972)"><path
       style="fill:#000000"
       d="m 100.22191,218.20813 c -8.939954,-0.71065 -17.502295,-2.97626 -25.214812,-6.67189 -9.954691,-4.77002 -18.051949,-11.19726 -24.883885,-19.7517 -4.679831,-5.85973 -8.363531,-12.68339 -10.753419,-19.91953 -3.973307,-12.03046 -4.291004,-25.40226 -0.885974,-37.29045 1.288402,-4.49827 2.522779,-7.60513 4.743168,-11.93831 3.611782,-7.04852 7.484265,-12.241 13.260285,-17.78025 10.256939,-9.83649 23.244229,-16.328938 37.24903,-18.62109 4.519804,-0.739752 6.251087,-0.874068 11.305067,-0.877065 5.11439,-0.003 7.45851,0.170513 11.87401,0.879085 9.06445,1.454608 18.30432,5.002133 26.26252,10.083149 6.68929,4.270861 12.47962,9.553131 17.52528,15.987531 5.60247,7.14446 10.09011,16.63783 12.08181,25.55843 0.42129,1.88693 0.97775,5.57657 1.22315,8.11028 0.23658,2.44253 0.23578,9.66651 -0.001,11.87123 -0.89404,8.31403 -3.02053,15.65878 -6.58452,22.74253 -4.87316,9.68582 -11.62037,17.61029 -20.68221,24.29084 -8.32952,6.14068 -19.37064,10.79676 -29.55202,12.46219 -4.16317,0.681 -6.56275,0.88147 -11.16886,0.93308 -2.38179,0.0267 -4.99058,-0.004 -5.79732,-0.0681 z m 9.56906,-2.41643 c 7.22069,-0.5045 12.98261,-1.74508 19.37379,-4.17132 8.70429,-3.30434 16.30062,-8.11767 23.03021,-14.59284 3.62575,-3.48868 6.06798,-6.3607 8.70407,-10.23581 6.89585,-10.13708 10.53255,-21.42611 10.80614,-33.54436 0.20458,-9.06181 -1.25216,-16.84663 -4.71868,-25.21674 -3.23837,-7.81921 -8.09238,-14.91194 -14.51234,-21.2056 -5.16321,-5.06164 -11.18685,-9.269548 -17.87099,-12.484049 -9.36826,-4.505339 -18.90216,-6.676482 -29.35226,-6.684356 -3.94314,-0.003 -5.741694,0.111347 -9.149977,0.581582 -9.805582,1.352858 -19.174611,4.804635 -27.380078,10.087481 -5.143562,3.311542 -9.972902,7.403932 -13.895634,11.775172 -8.509319,9.48226 -14.095658,21.40905 -15.641222,33.3939 -2.331377,18.07832 2.951215,35.4686 14.967679,49.27357 1.745907,2.00576 6.071783,6.18711 8.143241,7.87117 8.919492,7.2514 19.833512,12.24842 31.194452,14.2825 1.682467,0.30123 5.872064,0.80288 7.640559,0.91485 1.68696,0.10681 6.87299,0.0798 8.66104,-0.0452 z m 16.90301,-24.54574 c -5.65275,-0.29124 -11.0538,-1.64375 -15.91779,-3.98605 -1.20389,-0.57975 -3.01079,-1.61353 -3.01079,-1.72256 0,-0.029 0.2986,-0.19831 0.66355,-0.37616 1.04855,-0.51099 3.53629,-2.12639 4.56427,-2.96377 l 0.93897,-0.76486 0.79312,0.65932 c 3.76789,3.1322 8.12846,5.10209 13.31703,6.01597 1.69491,0.29853 4.92323,0.38977 6.89704,0.19492 6.66389,-0.65782 11.67708,-3.68103 15.46871,-9.32844 0.67413,-1.00407 2.45643,-4.35406 2.77442,-5.21475 0.10564,-0.28595 0.27163,-0.54922 0.36885,-0.58505 0.0972,-0.0358 0.86694,0.0993 1.71048,0.30023 1.79225,0.42695 1.70235,0.0734 0.73342,2.88388 -0.73208,2.12342 -2.14173,5.25145 -2.96954,6.58943 -0.68992,1.11512 -2.09481,2.58557 -3.32868,3.484 -0.99485,0.7244 -3.02909,1.76339 -4.70311,2.40213 -4.76835,1.81941 -11.80299,2.74651 -18.29995,2.41176 z m -42.257519,-4.77578 c -6.532392,-0.45652 -12.145629,-1.84566 -17.112548,-4.23492 -9.370611,-4.50761 -16.064718,-12.47401 -18.574238,-22.10451 -0.839611,-3.22208 -1.189425,-6.22036 -1.189739,-10.19735 -4.3e-4,-5.44846 0.832887,-9.7598 2.807377,-14.52453 4.461475,-10.76618 14.815659,-18.7766 27.43367,-21.22381 7.152227,-1.38714 15.450594,-1.24412 23.887717,0.41169 3.1026,0.60889 7.98536,1.98319 11.11893,3.12952 l 0.78156,0.2859 0.16138,1.84957 c 0.22863,2.62021 0.23686,2.53607 -0.25853,2.64055 -1.07025,0.22572 -4.15596,1.57438 -5.52926,2.41666 l -0.71065,0.43585 -0.96569,-1.22189 c -3.31236,-4.19117 -7.345509,-6.66014 -12.391533,-7.58573 -5.512704,-1.0112 -11.367278,-0.57644 -16.078548,1.19397 -5.139233,1.93124 -9.085346,5.02472 -12.296218,9.6394 -2.469463,3.54912 -4.152649,7.67487 -5.096573,12.49247 -1.028308,5.24828 -1.031096,11.85025 -0.0073,17.30974 2.415851,12.88289 10.695086,22.39639 21.936832,25.20716 2.39741,0.59942 4.000756,0.81786 6.632557,0.90363 6.5397,0.2131 11.382003,-1.21342 16.082503,-4.73786 3.39428,-2.54503 6.23084,-6.14442 8.28545,-10.51363 0.39897,-0.84842 0.76639,-1.58464 0.81649,-1.63603 0.0703,-0.0721 3.45083,0.64191 3.6214,0.76493 0.0209,0.015 -0.21132,0.80574 -0.51597,1.75708 -1.76174,5.50138 -3.8881,8.79966 -7.34319,11.39029 -4.33093,3.24733 -9.72774,5.15756 -16.695129,5.90934 -1.749655,0.18879 -7.358059,0.34333 -8.800739,0.24251 z m 14.64469,-9.81546 c -2.93953,-3.84915 -4.925207,-8.6777 -5.803496,-14.11233 -0.359002,-2.22141 -0.358635,-9.0501 6.05e-4,-11.26761 1.025363,-6.32932 3.601344,-11.90985 7.62555,-16.51976 4.29724,-4.92266 10.40307,-8.5658 17.12912,-10.22034 9.68028,-2.38124 21.34307,-1.68401 32.57485,1.9474 l 2.95966,0.95691 0.0818,0.81795 c 0.045,0.44987 0.26973,2.90045 0.49948,5.44572 0.22975,2.54528 0.56748,6.07647 0.75053,7.84709 0.18304,1.77063 0.30829,3.24419 0.27833,3.27458 -0.0837,0.0849 -3.28018,0.31383 -3.35661,0.24044 -0.037,-0.0355 -0.2844,-0.8711 -0.54982,-1.85686 -1.17372,-4.35927 -2.3723,-7.1233 -4.27155,-9.85061 -3.34901,-4.80915 -8.71658,-7.43005 -15.69568,-7.66395 -4.78883,-0.1605 -9.04225,0.64075 -12.66288,2.38541 -3.72881,1.79678 -5.85366,3.46423 -8.06389,6.32804 -2.72387,3.52934 -4.13609,6.44165 -5.33726,11.0066 -1.58835,6.03644 -1.56085,14.56076 0.067,20.75786 0.46958,1.78765 1.17006,3.71126 1.74667,4.79656 0.16105,0.30313 0.29282,0.61066 0.29282,0.68339 0,0.23553 -1.81673,2.13239 -2.98434,3.11596 -1.07852,0.90853 -4.10453,2.93788 -4.36664,2.92843 -0.06746,-0.002 -0.478849,-0.47083 -0.914189,-1.04088 z m 12.317569,-40.49508 -0.32222,-1.17121 0.7518,-0.60935 c 0.41348,-0.33514 1.2124,-1.02322 1.77537,-1.52906 0.56297,-0.50583 1.04961,-0.89472 1.08141,-0.86419 0.0701,0.0674 0.29475,2.13281 0.4156,3.82166 l 0.0882,1.23293 -0.46386,0.0681 c -0.25512,0.0375 -1.03541,0.10281 -1.73398,0.14521 l -1.27013,0.0771 z"
       id="path1" /></g></svg>
